<svg width="34" height="34" viewBox="0 0 34 34" fill="none" xmlns="http://www.w3.org/2000/svg">
<g id="Tick Circle">
<g id="Vector" filter="url(#filter0_b_202_14)">
<path fill-rule="evenodd" clip-rule="evenodd" d="M16 31C24.2843 31 31 24.2843 31 16C31 7.71573 24.2843 1 16 1C7.71573 1 1 7.71573 1 16C1 24.2843 7.71573 31 16 31Z" fill="#6DE8F3" fill-opacity="0.35"/>
<path fill-rule="evenodd" clip-rule="evenodd" d="M16 31C24.2843 31 31 24.2843 31 16C31 7.71573 24.2843 1 16 1C7.71573 1 1 7.71573 1 16C1 24.2843 7.71573 31 16 31Z" stroke="url(#paint0_linear_202_14)" stroke-linecap="round"/>
</g>
<g id="Vector_2" filter="url(#filter1_d_202_14)">
<path fill-rule="evenodd" clip-rule="evenodd" d="M24.3382 12.2504C24.7526 11.7875 24.7133 11.0763 24.2504 10.6618C23.7875 10.2474 23.0763 10.2867 22.6618 10.7496L17.6081 16.3944C16.584 17.5382 15.8944 18.3044 15.3048 18.8C14.7431 19.2721 14.4132 19.375 14.125 19.375C13.8368 19.375 13.5069 19.2721 12.9452 18.8C12.3556 18.3044 11.666 17.5382 10.6419 16.3944L9.33816 14.9381C8.92372 14.4752 8.21249 14.436 7.74959 14.8504C7.28668 15.2648 7.2474 15.9761 7.66183 16.439L9.02129 17.9574C9.97507 19.0228 10.7706 19.9114 11.4975 20.5224C12.2665 21.1687 13.0959 21.625 14.125 21.625C15.1541 21.625 15.9835 21.1687 16.7525 20.5224C17.4794 19.9114 18.2749 19.0228 19.2287 17.9574L24.3382 12.2504Z" fill="url(#paint1_linear_202_14)"/>
</g>
</g>
<defs>
<filter id="filter0_b_202_14" x="-23.5" y="-23.5" width="79" height="79" filterUnits="userSpaceOnUse" color-interpolation-filters="sRGB">
<feFlood flood-opacity="0" result="BackgroundImageFix"/>
<feGaussianBlur in="BackgroundImageFix" stdDeviation="12"/>
<feComposite in2="SourceAlpha" operator="in" result="effect1_backgroundBlur_202_14"/>
<feBlend mode="normal" in="SourceGraphic" in2="effect1_backgroundBlur_202_14" result="shape"/>
</filter>
<filter id="filter1_d_202_14" x="4.37498" y="7.375" width="33.25" height="27.25" filterUnits="userSpaceOnUse" color-interpolation-filters="sRGB">
<feFlood flood-opacity="0" result="BackgroundImageFix"/>
<feColorMatrix in="SourceAlpha" type="matrix" values="0 0 0 0 0 0 0 0 0 0 0 0 0 0 0 0 0 0 127 0" result="hardAlpha"/>
<feOffset dx="5" dy="5"/>
<feGaussianBlur stdDeviation="4"/>
<feColorMatrix type="matrix" values="0 0 0 0 0.176471 0 0 0 0 0.556863 0 0 0 0 0.678431 0 0 0 0.5 0"/>
<feBlend mode="normal" in2="BackgroundImageFix" result="effect1_dropShadow_202_14"/>
<feBlend mode="normal" in="SourceGraphic" in2="effect1_dropShadow_202_14" result="shape"/>
</filter>
<linearGradient id="paint0_linear_202_14" x1="1" y1="1" x2="31.0152" y2="30.9848" gradientUnits="userSpaceOnUse">
<stop stop-color="white" stop-opacity="0.25"/>
<stop offset="1" stop-color="white" stop-opacity="0"/>
</linearGradient>
<linearGradient id="paint1_linear_202_14" x1="16.1453" y1="24.0217" x2="30.4693" y2="2.49199" gradientUnits="userSpaceOnUse">
<stop stop-color="white"/>
<stop offset="1" stop-color="white" stop-opacity="0.2"/>
</linearGradient>
</defs>
</svg>
